<mxfile host="app.diagrams.net" agent="Mozilla/5.0 (Windows NT 10.0; Win64; x64) AppleWebKit/537.36 (KHTML, like Gecko) Chrome/138.0.0.0 Safari/537.36" version="28.0.7">
  <diagram name="Page-1" id="ur7ggvwEmTtX5OtbJOhR">
    <mxGraphModel dx="1106" dy="676" grid="1" gridSize="10" guides="1" tooltips="1" connect="1" arrows="1" fold="1" page="1" pageScale="1" pageWidth="827" pageHeight="1169" math="0" shadow="0">
      <root>
        <mxCell id="0" />
        <mxCell id="1" parent="0" />
        <mxCell id="sweXDwjEjmomIUumZzKp-1" value="" style="edgeStyle=orthogonalEdgeStyle;rounded=0;orthogonalLoop=1;jettySize=auto;html=1;" parent="1" source="sweXDwjEjmomIUumZzKp-3" target="sweXDwjEjmomIUumZzKp-6" edge="1">
          <mxGeometry relative="1" as="geometry" />
        </mxCell>
        <mxCell id="sweXDwjEjmomIUumZzKp-2" value="" style="edgeStyle=orthogonalEdgeStyle;rounded=0;orthogonalLoop=1;jettySize=auto;html=1;" parent="1" source="sweXDwjEjmomIUumZzKp-3" target="sweXDwjEjmomIUumZzKp-17" edge="1">
          <mxGeometry relative="1" as="geometry" />
        </mxCell>
        <mxCell id="sweXDwjEjmomIUumZzKp-3" value="TV Series Management Application" style="rounded=0;whiteSpace=wrap;html=1;" parent="1" vertex="1">
          <mxGeometry x="85" y="40" width="120" height="60" as="geometry" />
        </mxCell>
        <mxCell id="sweXDwjEjmomIUumZzKp-4" value="JSON" style="rhombus;whiteSpace=wrap;html=1;rounded=0;" parent="1" vertex="1">
          <mxGeometry x="295" y="620" width="80" height="35" as="geometry" />
        </mxCell>
        <mxCell id="sweXDwjEjmomIUumZzKp-5" value="" style="edgeStyle=orthogonalEdgeStyle;rounded=0;orthogonalLoop=1;jettySize=auto;html=1;" parent="1" source="sweXDwjEjmomIUumZzKp-6" edge="1">
          <mxGeometry relative="1" as="geometry">
            <mxPoint x="145" y="190" as="targetPoint" />
          </mxGeometry>
        </mxCell>
        <mxCell id="sweXDwjEjmomIUumZzKp-6" value="Open App" style="rounded=0;whiteSpace=wrap;html=1;" parent="1" vertex="1">
          <mxGeometry x="85" y="130" width="120" height="30" as="geometry" />
        </mxCell>
        <mxCell id="sweXDwjEjmomIUumZzKp-7" value="" style="endArrow=classic;html=1;rounded=0;" parent="1" edge="1">
          <mxGeometry relative="1" as="geometry">
            <mxPoint x="205" y="270" as="sourcePoint" />
            <mxPoint x="145" y="170" as="targetPoint" />
            <Array as="points">
              <mxPoint x="225" y="270" />
              <mxPoint x="275" y="270" />
              <mxPoint x="275" y="170" />
            </Array>
          </mxGeometry>
        </mxCell>
        <mxCell id="sweXDwjEjmomIUumZzKp-8" value="No" style="edgeLabel;resizable=0;html=1;;align=center;verticalAlign=middle;" parent="sweXDwjEjmomIUumZzKp-7" connectable="0" vertex="1">
          <mxGeometry relative="1" as="geometry">
            <mxPoint x="-40" y="80" as="offset" />
          </mxGeometry>
        </mxCell>
        <mxCell id="sweXDwjEjmomIUumZzKp-9" value="" style="edgeStyle=orthogonalEdgeStyle;rounded=0;orthogonalLoop=1;jettySize=auto;html=1;" parent="1" source="sweXDwjEjmomIUumZzKp-10" target="sweXDwjEjmomIUumZzKp-14" edge="1">
          <mxGeometry relative="1" as="geometry" />
        </mxCell>
        <mxCell id="sweXDwjEjmomIUumZzKp-10" value="Registration successful?" style="rhombus;whiteSpace=wrap;html=1;" parent="1" vertex="1">
          <mxGeometry x="85" y="240" width="120" height="60" as="geometry" />
        </mxCell>
        <mxCell id="sweXDwjEjmomIUumZzKp-11" value="" style="edgeStyle=orthogonalEdgeStyle;rounded=0;orthogonalLoop=1;jettySize=auto;html=1;" parent="1" source="sweXDwjEjmomIUumZzKp-12" target="sweXDwjEjmomIUumZzKp-10" edge="1">
          <mxGeometry relative="1" as="geometry" />
        </mxCell>
        <mxCell id="sweXDwjEjmomIUumZzKp-12" value="Registration" style="shape=process;whiteSpace=wrap;html=1;backgroundOutline=1;" parent="1" vertex="1">
          <mxGeometry x="85" y="190" width="120" height="30" as="geometry" />
        </mxCell>
        <mxCell id="sweXDwjEjmomIUumZzKp-13" value="" style="edgeStyle=orthogonalEdgeStyle;rounded=0;orthogonalLoop=1;jettySize=auto;html=1;entryX=0.5;entryY=0;entryDx=0;entryDy=0;" parent="1" source="sweXDwjEjmomIUumZzKp-14" target="sweXDwjEjmomIUumZzKp-15" edge="1">
          <mxGeometry relative="1" as="geometry">
            <mxPoint x="145" y="400" as="targetPoint" />
          </mxGeometry>
        </mxCell>
        <mxCell id="sweXDwjEjmomIUumZzKp-14" value="Open Application" style="whiteSpace=wrap;html=1;" parent="1" vertex="1">
          <mxGeometry x="85" y="320" width="120" height="30" as="geometry" />
        </mxCell>
        <mxCell id="4uyYmniVmwnORTyzd9W--7" value="" style="edgeStyle=orthogonalEdgeStyle;rounded=0;orthogonalLoop=1;jettySize=auto;html=1;" edge="1" parent="1" source="sweXDwjEjmomIUumZzKp-15" target="4uyYmniVmwnORTyzd9W--6">
          <mxGeometry relative="1" as="geometry" />
        </mxCell>
        <mxCell id="sweXDwjEjmomIUumZzKp-15" value="Menu" style="swimlane;fontStyle=0;childLayout=stackLayout;horizontal=1;startSize=30;horizontalStack=0;resizeParent=1;resizeParentMax=0;resizeLast=0;collapsible=1;marginBottom=0;whiteSpace=wrap;html=1;" parent="1" vertex="1">
          <mxGeometry x="40" y="380" width="210" height="140" as="geometry" />
        </mxCell>
        <mxCell id="sweXDwjEjmomIUumZzKp-16" value="&lt;span style=&quot;background-color: transparent; color: light-dark(rgb(0, 0, 0), rgb(255, 255, 255));&quot;&gt;(1) Capture a new series&lt;/span&gt;&lt;br&gt;&lt;span style=&quot;background-color: transparent; color: light-dark(rgb(0, 0, 0), rgb(255, 255, 255));&quot;&gt;(2) Search for a series&lt;/span&gt;&lt;br&gt;&lt;span style=&quot;background-color: transparent; color: light-dark(rgb(0, 0, 0), rgb(255, 255, 255));&quot;&gt;(3) Update series age restriction&lt;/span&gt;&lt;br&gt;&lt;span style=&quot;background-color: transparent; color: light-dark(rgb(0, 0, 0), rgb(255, 255, 255));&quot;&gt;(4) Delete a series&lt;/span&gt;&lt;br&gt;&lt;span style=&quot;background-color: transparent; color: light-dark(rgb(0, 0, 0), rgb(255, 255, 255));&quot;&gt;(5) Print series report - 2025&lt;/span&gt;&lt;br&gt;&lt;span style=&quot;background-color: transparent; color: light-dark(rgb(0, 0, 0), rgb(255, 255, 255));&quot;&gt;(6) Exit Application&lt;/span&gt;" style="text;strokeColor=none;fillColor=none;align=left;verticalAlign=middle;spacingLeft=4;spacingRight=4;overflow=hidden;points=[[0,0.5],[1,0.5]];portConstraint=eastwest;rotatable=0;whiteSpace=wrap;html=1;" parent="sweXDwjEjmomIUumZzKp-15" vertex="1">
          <mxGeometry y="30" width="210" height="110" as="geometry" />
        </mxCell>
        <mxCell id="sweXDwjEjmomIUumZzKp-17" value="TV Series Management Application" style="rounded=0;whiteSpace=wrap;html=1;" parent="1" vertex="1">
          <mxGeometry x="85" y="180" width="120" height="60" as="geometry" />
        </mxCell>
        <mxCell id="4uyYmniVmwnORTyzd9W--9" value="" style="edgeStyle=orthogonalEdgeStyle;rounded=0;orthogonalLoop=1;jettySize=auto;html=1;" edge="1" parent="1" source="4uyYmniVmwnORTyzd9W--6" target="4uyYmniVmwnORTyzd9W--8">
          <mxGeometry relative="1" as="geometry">
            <Array as="points">
              <mxPoint x="430" y="450" />
              <mxPoint x="430" y="330" />
            </Array>
          </mxGeometry>
        </mxCell>
        <mxCell id="4uyYmniVmwnORTyzd9W--6" value="Menu" style="rhombus;whiteSpace=wrap;html=1;fontStyle=0;startSize=30;horizontal=1;" vertex="1" parent="1">
          <mxGeometry x="310" y="410" width="80" height="80" as="geometry" />
        </mxCell>
        <mxCell id="4uyYmniVmwnORTyzd9W--8" value="" style="whiteSpace=wrap;html=1;fontStyle=0;startSize=30;horizontal=1;" vertex="1" parent="1">
          <mxGeometry x="470" y="315" width="120" height="35" as="geometry" />
        </mxCell>
        <mxCell id="4uyYmniVmwnORTyzd9W--11" value="" style="endArrow=classic;html=1;rounded=0;" edge="1" parent="1">
          <mxGeometry width="50" height="50" relative="1" as="geometry">
            <mxPoint x="430" y="387" as="sourcePoint" />
            <mxPoint x="470" y="387" as="targetPoint" />
            <Array as="points">
              <mxPoint x="450" y="387" />
            </Array>
          </mxGeometry>
        </mxCell>
        <mxCell id="4uyYmniVmwnORTyzd9W--30" value="" style="whiteSpace=wrap;html=1;fontStyle=0;startSize=30;horizontal=1;" vertex="1" parent="1">
          <mxGeometry x="470" y="371" width="120" height="30" as="geometry" />
        </mxCell>
        <mxCell id="4uyYmniVmwnORTyzd9W--33" value="" style="endArrow=classic;html=1;rounded=0;" edge="1" parent="1">
          <mxGeometry width="50" height="50" relative="1" as="geometry">
            <mxPoint x="430" y="436" as="sourcePoint" />
            <mxPoint x="470" y="436" as="targetPoint" />
            <Array as="points">
              <mxPoint x="450" y="436" />
            </Array>
          </mxGeometry>
        </mxCell>
        <mxCell id="4uyYmniVmwnORTyzd9W--34" value="" style="whiteSpace=wrap;html=1;fontStyle=0;startSize=30;horizontal=1;" vertex="1" parent="1">
          <mxGeometry x="470" y="420" width="120" height="30" as="geometry" />
        </mxCell>
        <mxCell id="4uyYmniVmwnORTyzd9W--35" value="" style="endArrow=classic;html=1;rounded=0;" edge="1" parent="1">
          <mxGeometry width="50" height="50" relative="1" as="geometry">
            <mxPoint x="430" y="487" as="sourcePoint" />
            <mxPoint x="470" y="487" as="targetPoint" />
            <Array as="points">
              <mxPoint x="450" y="487" />
            </Array>
          </mxGeometry>
        </mxCell>
        <mxCell id="4uyYmniVmwnORTyzd9W--36" value="" style="whiteSpace=wrap;html=1;fontStyle=0;startSize=30;horizontal=1;" vertex="1" parent="1">
          <mxGeometry x="470" y="471" width="120" height="30" as="geometry" />
        </mxCell>
        <mxCell id="4uyYmniVmwnORTyzd9W--38" value="" style="whiteSpace=wrap;html=1;fontStyle=0;startSize=30;horizontal=1;" vertex="1" parent="1">
          <mxGeometry x="470" y="569.5" width="120" height="30" as="geometry" />
        </mxCell>
        <mxCell id="4uyYmniVmwnORTyzd9W--39" value="" style="endArrow=classic;html=1;rounded=0;" edge="1" parent="1">
          <mxGeometry width="50" height="50" relative="1" as="geometry">
            <mxPoint x="430" y="535" as="sourcePoint" />
            <mxPoint x="470" y="535" as="targetPoint" />
            <Array as="points">
              <mxPoint x="450" y="535" />
            </Array>
          </mxGeometry>
        </mxCell>
        <mxCell id="4uyYmniVmwnORTyzd9W--40" value="" style="whiteSpace=wrap;html=1;fontStyle=0;startSize=30;horizontal=1;" vertex="1" parent="1">
          <mxGeometry x="470" y="519" width="120" height="30" as="geometry" />
        </mxCell>
        <mxCell id="4uyYmniVmwnORTyzd9W--41" value="" style="edgeStyle=orthogonalEdgeStyle;rounded=0;orthogonalLoop=1;jettySize=auto;html=1;entryX=0;entryY=0.5;entryDx=0;entryDy=0;" edge="1" parent="1" target="4uyYmniVmwnORTyzd9W--38">
          <mxGeometry relative="1" as="geometry">
            <mxPoint x="400" y="450" as="sourcePoint" />
            <mxPoint x="480" y="585" as="targetPoint" />
            <Array as="points">
              <mxPoint x="390" y="450" />
              <mxPoint x="430" y="450" />
              <mxPoint x="430" y="585" />
            </Array>
          </mxGeometry>
        </mxCell>
      </root>
    </mxGraphModel>
  </diagram>
</mxfile>
